<?xml version="1.0" standalone="no"?>
<!DOCTYPE svg PUBLIC "-//W3C//DTD SVG 20010904//EN"
 "http://www.w3.org/TR/2001/REC-SVG-20010904/DTD/svg10.dtd">
<svg version="1.0" xmlns="http://www.w3.org/2000/svg"
 width="1024.000000pt" height="1024.000000pt" viewBox="0 0 1024.000000 1024.000000"
 preserveAspectRatio="xMidYMid meet">
<metadata>
Created by potrace 1.11, written by Peter Selinger 2001-2013
</metadata>
<g transform="translate(0.000000,1024.000000) scale(0.100000,-0.100000)"
fill="#000000" stroke="none">
<path d="M2279 9100 c-1 -3 -3 -126 -4 -275 -1 -148 -3 -275 -4 -281 -1 -8
-79 -11 -277 -10 -236 1 -277 -1 -283 -14 -3 -8 -6 -137 -5 -285 l1 -270 -284
0 -283 0 -1 -30 c0 -16 0 -145 -1 -285 l0 -255 -284 0 -284 0 0 -282 c0 -219
-3 -283 -12 -284 -7 0 -134 -2 -283 -2 l-270 -2 -3 -285 -2 -285 285 1 285 2
0 -284 0 -284 -285 0 -285 0 0 -285 0 -285 285 0 285 0 0 -285 0 -285 -285 0
-285 0 0 -284 0 -284 283 1 282 0 0 -284 0 -284 -282 0 -283 0 0 -285 0 -285
273 1 c149 0 278 -2 285 -4 18 -6 18 -558 0 -564 -7 -2 -136 -4 -285 -4 l-273
1 0 -282 c0 -219 3 -283 13 -284 6 0 135 -1 284 -1 l273 -1 2 -285 3 -284 245
0 c135 1 261 1 282 1 l36 1 0 253 c0 138 1 266 1 283 l1 31 283 -1 282 -1 1
-278 c0 -152 4 -280 7 -283 5 -5 384 -8 532 -5 l30 1 0 283 0 282 285 0 285 0
0 -277 c0 -152 3 -280 7 -284 9 -8 546 -9 555 0 3 3 7 131 7 283 l1 278 283 1
c251 1 282 -1 283 -15 0 -9 1 -137 2 -285 l2 -269 265 1 c146 0 273 1 283 1
16 1 17 21 17 284 l0 284 283 -1 282 -1 3 -283 c2 -215 5 -282 15 -283 17 0
496 -1 529 0 l28 1 2 282 3 283 281 1 281 1 1 -279 c0 -153 2 -282 5 -285 5
-4 399 -7 533 -4 l30 1 0 267 c-1 148 0 275 2 284 3 14 36 16 282 16 194 0
280 -3 283 -11 2 -6 3 -134 3 -283 -1 -267 -1 -273 19 -274 28 0 517 -1 535 0
13 1 15 37 14 274 0 149 1 277 3 283 3 8 84 11 284 10 272 -1 279 -1 280 19 0
11 2 139 2 285 l2 265 277 0 c152 0 279 3 283 7 4 4 8 132 9 285 l1 278 283 0
282 0 0 282 c0 219 3 283 13 284 6 0 134 2 282 2 l270 2 3 2560 2 2560 -285
-1 -285 -1 0 284 c0 263 -1 283 -17 284 -107 3 -7373 3 -7374 -1z m7384 -569
c4 -1 7 -128 7 -284 l0 -282 -282 0 -283 0 -1 282 c-1 280 -1 282 20 285 18 3
518 2 539 -1z m-562 -576 c1 -14 1 -493 0 -530 l-1 -30 -280 0 c-273 0 -281 1
-285 20 -3 18 0 550 3 550 121 5 562 -3 563 -10z m-7400 -564 c8 -1 8 -561 0
-562 -40 -6 -554 -2 -558 5 -7 11 -7 542 0 553 4 6 529 10 558 4z m1145 -271
c0 -151 -3 -279 -7 -285 -6 -8 -477 -13 -554 -6 -11 1 -14 539 -3 556 4 7 106
10 285 10 l278 0 1 -275z m1129 268 c9 -8 10 -546 1 -555 -6 -7 -504 -11 -542
-5 -20 4 -21 8 -21 280 0 153 3 279 8 282 11 8 546 6 554 -2z m1145 -278 l0
-285 -277 2 c-153 0 -281 2 -285 2 -5 1 -8 128 -8 284 l0 282 285 0 285 0 0
-285z m1126 281 c9 -1 12 -79 12 -281 -1 -251 -2 -280 -17 -281 -59 -3 -528
-4 -538 -1 -10 3 -13 69 -13 286 l0 281 273 -1 c149 -1 277 -2 283 -3z m1149
-279 l0 -282 -35 -1 c-129 -4 -523 -3 -528 1 -9 7 -9 553 0 560 3 3 131 5 285
5 l278 0 0 -283z m1135 277 c10 -14 3 -551 -8 -557 -8 -5 -526 -8 -552 -3 -4
1 -5 524 -1 556 1 12 553 15 561 4z m1 -1153 c0 -11 2 -139 2 -283 l2 -263
-285 0 -285 0 1 283 c1 155 2 283 3 283 0 1 127 2 281 2 279 0 280 0 281 -22z
m2 -1388 c0 -150 -2 -279 -2 -285 -1 -10 -64 -13 -281 -13 -154 0 -281 3 -281
8 -4 20 -5 548 -2 555 2 4 131 7 286 7 l282 0 -2 -272z m-10 -871 c9 -3 12
-68 10 -278 0 -151 -2 -277 -2 -280 -1 -8 -561 -8 -562 0 -1 3 -2 131 -3 283
l-2 277 46 3 c70 5 499 1 513 -5z m8 -1142 c0 -5 2 -131 2 -278 2 -230 0 -270
-13 -276 -8 -4 -136 -7 -285 -7 l-270 1 -1 275 c0 151 3 280 7 285 10 14 559
14 560 0z"/>
</g>
</svg>
